<?xml version="1.0" encoding="UTF-8" standalone="no"?><svg xmlns="http://www.w3.org/2000/svg" xmlns:xlink="http://www.w3.org/1999/xlink" contentScriptType="text/ecmascript" fill="#000000" width="417.1" zoomAndPan="magnify" contentStyleType="text/css" viewBox="0.0 -0.0 417.1 617.5" height="617.5" preserveAspectRatio="xMidYMid meet" version="1"><defs><clipPath id="a"><path d="M 126 589 L 175 589 L 175 617.519531 L 126 617.519531 Z M 126 589"/></clipPath><clipPath id="b"><path d="M 308 589 L 357 589 L 357 617.519531 L 308 617.519531 Z M 308 589"/></clipPath><clipPath id="c"><path d="M 375 325 L 417.050781 325 L 417.050781 396 L 375 396 Z M 375 325"/></clipPath></defs><g><g><path fill="#bd3c29" d="M 172.921875 589.519531 C 171.046875 589.230469 172.636719 568.839844 176.507812 543.988281 C 180.378906 519.136719 185.050781 499.226562 186.921875 499.519531 C 188.796875 499.8125 187.171875 520.195312 183.300781 545.046875 C 179.429688 569.898438 174.792969 589.808594 172.921875 589.519531"/></g><g clip-path="url(#a)"><path fill="#bd3c29" d="M 172.921875 589.519531 C 172.921875 589.519531 174.921875 613.519531 173.921875 615.519531 C 172.921875 617.519531 126.421875 617.519531 126.421875 617.519531 C 126.421875 617.519531 126.453125 611.578125 141.421875 603.519531 C 160.921875 593.019531 172.921875 589.519531 172.921875 589.519531"/></g><g><path fill="#bd3c29" d="M 310.257812 589.519531 C 312.132812 589.230469 310.546875 568.839844 306.671875 543.988281 C 302.800781 519.136719 298.128906 499.226562 296.257812 499.519531 C 294.386719 499.8125 296.007812 520.195312 299.878906 545.046875 C 303.75 569.898438 308.386719 589.808594 310.257812 589.519531"/></g><g clip-path="url(#b)"><path fill="#bd3c29" d="M 310.257812 589.519531 C 310.257812 589.519531 308.257812 613.519531 309.257812 615.519531 C 310.257812 617.519531 356.757812 617.519531 356.757812 617.519531 C 356.757812 617.519531 356.726562 611.578125 341.757812 603.519531 C 322.257812 593.019531 310.257812 589.519531 310.257812 589.519531"/></g><g><path fill="#bd3c29" d="M 134.03125 325.28125 C 134.570312 325.898438 128.9375 332.535156 117.660156 341.117188 C 111.925781 345.226562 104.902344 350.265625 95.042969 352.695312 C 90.246094 353.824219 83.832031 353.871094 78.644531 350.105469 C 73.542969 346.382812 71.039062 340.617188 69.601562 335.179688 C 65.03125 312.886719 69.703125 293.617188 72.347656 279.945312 C 75.492188 266.273438 78.648438 258.160156 79.535156 258.402344 C 80.460938 258.644531 78.972656 267.125 77.082031 280.808594 C 75.597656 294.292969 72.082031 313.886719 76.195312 333.464844 C 77.410156 338.179688 79.480469 342.417969 82.566406 344.707031 C 85.597656 347.03125 89.757812 347.3125 93.800781 346.546875 C 101.980469 344.902344 109.175781 340.605469 114.953125 337.136719 C 126.539062 329.851562 133.359375 324.476562 134.03125 325.28125"/></g><g><path fill="#bd3c29" d="M 386.621094 417.339844 C 382.941406 429.804688 373.710938 438.0625 366 435.789062 C 358.285156 433.511719 355.019531 421.566406 358.695312 409.101562 C 362.375 396.632812 371.609375 388.371094 379.320312 390.648438 C 387.03125 392.921875 390.300781 404.875 386.621094 417.339844"/></g><g><path fill="#f07324" d="M 358.75 202.390625 C 358.75 202.390625 389.792969 210.558594 401.667969 208.507812 C 401.667969 208.507812 396.535156 285.488281 381.203125 334.164062 C 365.867188 382.839844 363.265625 449.457031 363.734375 474.691406 C 364.207031 499.929688 366.75 513.011719 368.777344 517.261719 C 368.777344 517.261719 346.328125 519.699219 332.644531 514.582031 C 318.960938 509.460938 308.132812 197.460938 358.75 202.390625"/></g><g><path fill="#f07324" d="M 139.09375 201.820312 C 126.386719 195.476562 107.601562 205.773438 109.117188 217.847656 C 110.628906 229.925781 136.195312 287.257812 124.839844 416.519531 C 121.222656 457.703125 111.609375 502.476562 113.660156 503.964844 C 117.761719 506.9375 133.515625 507.503906 138.988281 503.207031 C 144.464844 498.914062 153.5625 410.234375 156.539062 377.390625 C 159.519531 344.546875 150.492188 280.800781 145.496094 259.589844 C 141.890625 244.285156 145.636719 205.089844 139.09375 201.820312"/></g><g><path fill="#de5f24" d="M 156.539062 377.390625 C 159.519531 344.546875 150.492188 280.800781 145.496094 259.589844 C 141.890625 244.285156 145.636719 205.089844 139.09375 201.820312 C 134.375 199.464844 128.816406 199.40625 123.773438 200.878906 C 123.972656 201.5625 124.195312 202.222656 124.507812 202.804688 C 125.910156 205.429688 124.6875 209.460938 126.089844 212.085938 C 134.644531 251.914062 139.832031 292.242188 140.828125 332.992188 C 141.945312 389.511719 135.085938 442.769531 120.589844 497.769531 C 119.820312 500.410156 119.046875 503.03125 118.273438 505.640625 C 124.679688 506.929688 134.816406 506.480469 138.988281 503.207031 C 144.464844 498.914062 153.5625 410.234375 156.539062 377.390625"/></g><g><path fill="#f19c1b" d="M 125.101562 276.25 C 129.148438 300.941406 131.894531 331.027344 132.957031 353.648438 C 139.597656 339.765625 128.828125 243.085938 120.699219 206.125 C 116.386719 207.371094 113.402344 210.089844 112.308594 213.34375 C 112.003906 214.238281 119.335938 241.070312 125.101562 276.25"/></g><g><path fill="#ffffff" d="M 395.703125 213.324219 C 387.078125 216.390625 375.738281 212.761719 366.761719 211.257812 C 363.601562 236.007812 346.835938 429.835938 353.472656 409.617188 C 368.429688 364.070312 384.875 305.109375 386.824219 288.984375 C 388.769531 272.867188 397.332031 216.699219 395.855469 213.542969 C 395.8125 213.464844 395.761719 213.394531 395.703125 213.324219"/></g><g><path fill="#d8dade" d="M 384.144531 279.601562 C 378.753906 292.347656 379.851562 306.554688 372.074219 318.242188 C 378.957031 297.925781 382.957031 276.738281 383.023438 255.570312 C 382.425781 272.335938 377.34375 288.660156 371.71875 304.933594 C 374.703125 282.824219 377.773438 259.894531 375.832031 237.308594 C 372.683594 261.058594 372.660156 286.773438 363.015625 309.058594 C 367.121094 281.414062 374.554688 249.941406 365.457031 223.226562 C 360.507812 272.324219 347.492188 427.835938 353.472656 409.617188 C 362.300781 382.734375 371.644531 351.183594 378.222656 326.519531 C 380.433594 310.953125 383.125 295.527344 384.144531 279.601562"/></g><g><path fill="#f19c1b" d="M 135.378906 199.742188 C 147.421875 191.894531 201.882812 182.542969 236.265625 189.21875 C 270.644531 195.898438 342.085938 203.515625 371.113281 188.855469 C 371.113281 188.855469 376.921875 227.902344 372.480469 296.507812 C 362.601562 449.226562 365.886719 524.667969 365.886719 524.667969 C 365.886719 524.667969 314.34375 530.339844 250.460938 524.304688 C 218.519531 521.289062 130.328125 508.351562 127.546875 506.386719 C 124.523438 504.25 139.675781 434.660156 144.367188 396.117188 C 156.789062 294.0625 126.230469 205.703125 135.378906 199.742188"/></g><g><path fill="#e99220" d="M 186.917969 472.71875 C 178.179688 460.253906 171.085938 447.945312 165.792969 434.15625 C 163.808594 428.984375 163.550781 423.148438 162.308594 418.878906 C 153.554688 364.101562 159.671875 309.941406 143.203125 257.726562 C 142.039062 252.636719 141.699219 247.625 139.714844 242.453125 C 138.886719 240.289062 138.058594 238.128906 137.226562 235.964844 C 142.832031 272.144531 152.246094 331.367188 144.367188 396.117188 C 139.675781 434.660156 124.523438 504.25 127.546875 506.386719 C 130.328125 508.351562 218.519531 521.289062 250.460938 524.304688 C 289.277344 527.96875 323.535156 527.316406 344.445312 526.238281 C 294.761719 518.964844 242.863281 517.882812 200.503906 486.492188 C 195.070312 482.644531 189.722656 477.972656 186.917969 472.71875"/></g><g><path fill="#f7af41" d="M 216.644531 197.851562 C 263.34375 209.664062 313.351562 224.695312 360.492188 209.722656 C 363.1875 223.21875 371.785156 253.21875 366.183594 301.558594 C 381.296875 255.027344 367.03125 195.503906 367.03125 195.503906 C 343.136719 207.570312 284.332031 201.300781 256.03125 195.804688 C 240.917969 192.867188 221.085938 193.699219 204.378906 196.089844 C 208.484375 196.320312 212.582031 196.886719 216.644531 197.851562"/></g><g><path fill="#bd3c29" d="M 180.347656 179.941406 C 207.976562 179.605469 205.875 208.832031 204.320312 205.632812 C 202.632812 207.621094 200.683594 184.308594 180.925781 186.035156 C 160.425781 187.269531 156.65625 206.53125 155.789062 205.851562 C 152.734375 207.722656 154.945312 181.941406 180.347656 179.941406"/></g><g><path fill="#ffffff" d="M 148.285156 248.492188 C 143.121094 271.324219 155.421875 293.578125 175.832031 298.207031 C 196.21875 302.828125 216.925781 288.097656 222.125 265.273438 C 227.308594 242.496094 214.980469 220.234375 194.597656 215.625 C 174.199219 210.988281 153.46875 225.726562 148.285156 248.492188"/></g><g><path fill="#231f20" d="M 179.605469 265.253906 C 179.914062 275.597656 188.542969 283.707031 198.863281 283.386719 C 209.1875 283.105469 217.316406 274.484375 216.988281 264.171875 C 216.664062 253.84375 208.0625 245.726562 197.753906 246.019531 C 187.445312 246.339844 179.308594 254.964844 179.605469 265.253906"/></g><g><path fill="#ffffff" d="M 195.816406 259.28125 C 195.914062 263.066406 199.109375 266.03125 202.828125 265.929688 C 206.632812 265.820312 209.632812 262.664062 209.496094 258.882812 C 209.386719 255.109375 206.222656 252.140625 202.445312 252.261719 C 198.6875 252.371094 195.710938 255.511719 195.816406 259.28125"/></g><g><path fill="#bd3c29" d="M 194.875 214.367188 C 153.683594 209.453125 146.554688 252.007812 148.285156 248.492188 C 147.960938 251.71875 156.351562 211.910156 194.308594 216.867188 C 230.699219 228.796875 221.03125 268.320312 222.125 265.273438 C 222.148438 269.179688 234.121094 227.738281 194.875 214.367188"/></g><g><path fill="#bd3c29" d="M 327.40625 192.832031 C 308.355469 187.355469 301.980469 209.847656 300.714844 207.578125 C 298.566406 210.421875 302.074219 181.355469 329.101562 186.976562 C 353.714844 193.757812 350.96875 219.503906 348.300781 217.085938 C 347.304688 217.570312 347.3125 197.980469 327.40625 192.832031"/></g><g><path fill="#ffffff" d="M 352.222656 255.054688 C 358.199219 277.679688 346.644531 300.332031 326.445312 305.648438 C 306.191406 310.992188 284.988281 296.996094 279.011719 274.402344 C 273.058594 251.78125 284.59375 229.121094 304.796875 223.792969 C 325.039062 218.429688 346.253906 232.441406 352.222656 255.054688"/></g><g><path fill="#231f20" d="M 323.78125 268.40625 C 323.8125 278.726562 315.480469 287.140625 305.15625 287.183594 C 294.855469 287.257812 286.40625 278.929688 286.367188 268.605469 C 286.328125 258.265625 294.644531 249.878906 304.953125 249.816406 C 315.28125 249.75 323.691406 258.089844 323.78125 268.40625"/></g><g><path fill="#ffffff" d="M 314.730469 262.613281 C 314.765625 266.378906 311.679688 269.464844 307.929688 269.492188 C 304.195312 269.527344 301.085938 266.429688 301.046875 262.667969 C 301.0625 258.898438 304.058594 255.828125 307.851562 255.789062 C 311.644531 255.777344 314.710938 258.832031 314.730469 262.613281"/></g><g><path fill="#bd3c29" d="M 304.480469 222.535156 C 345.488281 216.195312 354.066406 258.453125 352.222656 255.054688 C 352.652344 258.230469 342.882812 218.734375 305.113281 225.015625 C 269.203125 238.191406 280.199219 277.378906 279.011719 274.402344 C 279.097656 278.285156 265.691406 237.273438 304.480469 222.535156"/></g><g><path fill="#e95429" d="M 191.570312 194.425781 C 191.570312 194.425781 196.039062 151.148438 200.183594 145.09375 C 204.324219 139.035156 233.234375 122.839844 247.671875 122.699219 C 262.105469 122.558594 290.136719 142.136719 293.058594 147.394531 C 295.980469 152.652344 297.925781 191.488281 297.117188 195.441406 C 296.3125 199.394531 252.910156 169.714844 191.570312 194.425781"/></g><g><path fill="#df4b25" d="M 214.453125 134.679688 C 207.417969 138.65625 201.832031 142.679688 200.183594 145.09375 C 196.039062 151.148438 191.570312 194.425781 191.570312 194.425781 C 200.894531 190.667969 209.804688 188.175781 218.21875 186.625 C 212.296875 170.347656 211.085938 152.242188 214.453125 134.679688"/></g><g><path fill="#df4b25" d="M 293.058594 147.394531 C 291.722656 144.992188 285.128906 139.589844 276.988281 134.449219 C 279.917969 149.558594 278.585938 171.664062 270.109375 187.828125 C 286.863281 191.691406 296.734375 197.304688 297.117188 195.441406 C 297.925781 191.488281 295.980469 152.652344 293.058594 147.394531"/></g><g><path fill="#ea653d" d="M 247.546875 126.039062 C 234.597656 126.160156 210.015625 137.710938 202.085938 143.957031 C 229.574219 127.976562 263.417969 132.027344 291.042969 145.867188 C 283.898438 139.5625 260.371094 125.921875 247.546875 126.039062"/></g><g><path fill="#e4e6e9" d="M 191.359375 192.820312 C 191.359375 192.820312 184.007812 201.335938 187.003906 203.699219 C 190.003906 206.066406 202.953125 205.476562 208.292969 203.867188 C 213.632812 202.257812 238.308594 191.8125 246.621094 191.589844 C 254.929688 191.367188 275.800781 203.289062 280.734375 204.871094 C 285.671875 206.449219 301.574219 206.515625 302.75 204.773438 C 303.929688 203.027344 297.304688 193.171875 294.304688 190.808594 C 291.304688 188.441406 254.316406 177.484375 246.738281 177.640625 C 231.902344 177.957031 194.46875 190.046875 191.359375 192.820312"/></g><g><path fill="#d8dade" d="M 294.304688 190.808594 C 293.4375 190.125 289.742188 188.726562 284.746094 187.089844 C 284.597656 194.378906 281.132812 198.761719 276.101562 202.867188 C 278.125 203.824219 279.753906 204.554688 280.734375 204.871094 C 285.671875 206.449219 301.574219 206.515625 302.75 204.773438 C 303.929688 203.027344 297.304688 193.171875 294.304688 190.808594"/></g><g><path fill="#d8dade" d="M 201.523438 188.507812 C 196.140625 190.390625 192.273438 192.007812 191.359375 192.820312 C 191.359375 192.820312 184.007812 201.335938 187.003906 203.699219 C 190.003906 206.066406 202.953125 205.476562 208.292969 203.867188 C 208.871094 203.691406 209.6875 203.410156 210.671875 203.054688 C 206.210938 199.132812 202.863281 194.25 201.523438 188.507812"/></g><g><path fill="#bfc3ca" d="M 249.898438 188.683594 C 228.667969 188.175781 208.972656 201.554688 186.296875 202.238281 C 186.335938 202.835938 186.546875 203.339844 187.003906 203.699219 C 190.003906 206.066406 202.953125 205.476562 208.292969 203.867188 C 213.632812 202.257812 238.308594 191.8125 246.621094 191.589844 C 254.929688 191.367188 275.800781 203.289062 280.734375 204.871094 C 285.671875 206.449219 301.574219 206.515625 302.75 204.773438 C 302.949219 204.472656 302.910156 203.925781 302.710938 203.226562 C 270.03125 202.746094 268.113281 189.375 249.898438 188.683594"/></g><g><path fill="#a6abb2" d="M 215.082031 195.828125 C 205.949219 198.949219 197.324219 201.898438 193.4375 201.328125 C 193.261719 201.304688 193.09375 201.429688 193.066406 201.605469 C 193.042969 201.785156 193.164062 201.953125 193.34375 201.980469 C 197.390625 202.566406 205.683594 199.730469 215.292969 196.449219 C 225.964844 192.800781 238.0625 188.664062 246.042969 188.832031 C 254.605469 189.015625 262.066406 192.4375 269.285156 195.75 C 275.652344 198.671875 282.238281 201.695312 289.4375 202.351562 C 289.617188 202.371094 289.777344 202.238281 289.792969 202.058594 C 289.808594 201.875 289.675781 201.71875 289.496094 201.699219 C 282.410156 201.054688 276.164062 198.1875 269.554688 195.152344 C 262.277344 191.816406 254.757812 188.363281 246.054688 188.179688 C 237.960938 188.011719 225.808594 192.164062 215.082031 195.828125"/></g><g><path fill="#ffffff" d="M 209.152344 310.101562 L 290.226562 311.148438 C 290.226562 311.148438 282.046875 356.5625 255.039062 364.539062 C 228.03125 372.515625 211.609375 329.699219 209.152344 310.101562"/></g><g><path fill="#bd3c29" d="M 295.671875 309.65625 C 295.804688 310.570312 275.109375 313.585938 249.445312 313.222656 C 223.796875 313.011719 203.148438 310.296875 203.246094 309.40625 C 203.328125 308.523438 223.984375 309.785156 249.472656 309.992188 C 274.960938 310.351562 295.570312 308.804688 295.671875 309.65625"/></g><g clip-path="url(#c)"><path fill="#bd3c29" d="M 384.21875 395.464844 C 383.535156 394.875 387.019531 389.902344 392.527344 381.941406 C 397.757812 373.988281 406.152344 362.945312 410.046875 349.664062 C 411.902344 342.972656 410.582031 337.121094 405.832031 334.355469 C 401.207031 331.425781 395.398438 330.703125 390.789062 330.285156 C 381.347656 329.628906 375.285156 330.320312 375.136719 329.410156 C 374.972656 328.644531 380.785156 326.355469 390.882812 325.871094 C 395.882812 325.816406 402.210938 325.816406 408.84375 329.449219 C 412.09375 331.261719 415.214844 334.679688 416.332031 338.875 C 417.527344 343.039062 417.0625 347.289062 416.097656 351.199219 C 411.472656 366.664062 402.238281 377.101562 396.007812 384.652344 C 389.5 392.058594 384.835938 396 384.21875 395.464844"/></g><g><path fill="#3e3e42" d="M 83.4375 305.09375 L 72.996094 304.507812 L 81.140625 158.863281 L 91.582031 159.445312 L 83.4375 305.09375"/></g><g><path fill="#f19c1b" d="M 94.246094 2.65625 L 0 85.234375 L 85.238281 182.515625 L 182.515625 97.277344 L 97.277344 -0.00390625 L 94.246094 2.65625"/></g><g><path fill="#ea2e2b" d="M 94 9.957031 L 7.519531 85.730469 L 85.734375 174.992188 L 174.996094 96.78125 L 96.78125 7.519531 Z M 96.09375 17.953125 C 100.492188 22.976562 160.160156 91.070312 164.558594 96.09375 C 159.539062 100.488281 91.441406 160.160156 86.421875 164.558594 C 82.023438 159.539062 22.355469 91.441406 17.957031 86.421875 C 22.976562 82.023438 91.074219 22.355469 96.09375 17.953125"/></g><g><path fill="#3e3e42" d="M 87.21875 111.53125 L 88.136719 46.691406 L 102.738281 47.964844 L 93.558594 111.5625 L 87.21875 111.53125"/></g><g><path fill="#3e3e42" d="M 97.691406 124.511719 C 97.410156 128.734375 93.605469 131.921875 89.191406 131.628906 C 84.773438 131.339844 81.417969 127.679688 81.695312 123.457031 C 81.972656 119.234375 85.78125 116.046875 90.199219 116.335938 C 94.613281 116.628906 97.96875 120.285156 97.691406 124.511719"/></g><g><path fill="#bd3c29" d="M 97.097656 246.894531 C 94.46875 259.621094 85.957031 268.621094 78.082031 266.996094 C 70.207031 265.371094 65.957031 253.734375 68.582031 241.007812 C 71.210938 228.28125 79.722656 219.28125 87.597656 220.90625 C 95.472656 222.53125 99.722656 234.164062 97.097656 246.894531"/></g></g></svg>