<svg width="320.4" height="382.6" viewBox="52.6 18 320.4 382.6" xmlns="http://www.w3.org/2000/svg" xmlns:xlink="http://www.w3.org/1999/xlink" overflow="hidden"><g><g id="change1_1"><path d="M185.488 224.234C185.953 220.633 189.25 218.094 192.855 218.559 195.93 218.957 197.766 221.352 198.547 224.355L204.781 245.277 216.395 250.812C220.648 246.902 225.613 247.203 225.613 247.203 231.73 247.203 239.766 251.828 239.766 263.77L239.766 313.547C239.766 317.516 237.793 321.016 234.812 323.055L214.992 323.055 214.992 322.633C212.328 320.551 210.602 317.262 210.602 313.547L210.602 265.77C210.602 264.652 210.684 263.605 210.812 262.59L199.16 257.035 197.934 256.449 197.945 256.418C196.891 256.047 195.914 255.398 195.129 254.488 194.969 254.301 194.82 254.102 194.688 253.902 193.875 253.141 193.246 252.164 192.906 251.027L186.316 228.93 185.914 227.629 185.941 227.609C185.52 226.574 185.336 225.43 185.488 224.234" fill="#F5EEE4"/></g><g id="change2_1"><path d="M185.488 224.234 186.48 224.363C186.844 221.551 189.242 219.504 192.004 219.504 192.242 219.504 192.484 219.52 192.727 219.551 194.031 219.723 195.02 220.285 195.824 221.156 196.625 222.023 197.219 223.227 197.578 224.605L197.59 224.641 203.824 245.562C203.906 245.832 204.098 246.059 204.352 246.18L215.961 251.715C216.328 251.891 216.77 251.824 217.07 251.551 218.781 249.977 220.609 249.145 222.141 248.695 223.676 248.25 224.902 248.199 225.363 248.199L225.516 248.199 225.547 248.203 225.613 248.203C228.426 248.203 231.727 249.277 234.289 251.73 236.855 254.191 238.758 258.02 238.762 263.77L238.762 313.547C238.766 317.18 236.961 320.375 234.246 322.227L234.812 323.055 234.812 322.051 214.992 322.051 214.992 323.055 215.992 323.055 215.992 322.633C215.992 322.324 215.852 322.031 215.609 321.844 213.18 319.945 211.602 316.945 211.602 313.547L211.602 265.77C211.602 264.703 211.68 263.699 211.805 262.715 211.859 262.285 211.633 261.871 211.242 261.684L199.594 256.133 198.363 255.547 197.934 256.449 198.852 256.852 198.863 256.82C198.977 256.562 198.977 256.273 198.863 256.02 198.754 255.766 198.543 255.566 198.281 255.477 197.379 255.156 196.555 254.613 195.887 253.836L195.891 253.844C195.758 253.688 195.633 253.516 195.508 253.336L195.371 253.176C194.684 252.527 194.152 251.703 193.863 250.742L187.273 228.645 187.273 228.637 186.867 227.332 185.914 227.629 186.453 228.469 186.48 228.449C186.887 228.188 187.051 227.676 186.867 227.23 186.59 226.555 186.434 225.828 186.434 225.078 186.434 224.844 186.449 224.605 186.48 224.367L186.48 224.363 185.488 224.234 184.5 224.105C184.453 224.434 184.434 224.758 184.434 225.078 184.434 226.105 184.648 227.09 185.016 227.988L185.941 227.609 185.402 226.77 185.371 226.785C184.996 227.027 184.824 227.492 184.957 227.922L185.359 229.227 185.359 229.215 191.949 251.316C192.344 252.629 193.066 253.754 194 254.633L194.688 253.902 193.863 254.473C194.012 254.688 194.176 254.91 194.367 255.137L194.371 255.145C195.273 256.188 196.398 256.934 197.613 257.359L197.945 256.418 197.031 256.016 197.016 256.047C196.801 256.543 197.016 257.117 197.504 257.352L198.73 257.938 210.383 263.488 210.812 262.59 209.82 262.461C209.688 263.516 209.602 264.605 209.602 265.77L209.602 313.547C209.602 317.574 211.477 321.156 214.379 323.418L214.992 322.633 213.992 322.633 213.992 323.055C213.992 323.316 214.102 323.574 214.285 323.762 214.473 323.945 214.73 324.055 214.992 324.055L234.812 324.055C235.012 324.055 235.211 323.992 235.375 323.879 238.625 321.656 240.762 317.852 240.762 313.547L240.766 263.77C240.77 257.578 238.656 253.125 235.672 250.285 232.691 247.445 228.918 246.207 225.613 246.203L225.613 247.203 225.68 246.207C225.66 246.207 225.551 246.199 225.363 246.199 224.762 246.199 223.352 246.262 221.582 246.773 219.82 247.289 217.691 248.262 215.715 250.074L216.395 250.812 216.824 249.91 205.613 244.566 199.504 224.066 198.547 224.355 199.516 224.102C199.09 222.48 198.379 220.98 197.297 219.805 196.219 218.625 194.754 217.789 192.984 217.566 192.656 217.523 192.328 217.504 192.004 217.504 188.246 217.504 184.992 220.285 184.496 224.109L184.5 224.105 185.488 224.234" fill="#351F17"/></g><g id="change1_2"><path d="M221.23 354.848C221.23 359.98 225.395 364.145 230.535 364.145 235.664 364.145 239.832 359.98 239.832 354.848L239.832 316.871C239.832 311.738 235.664 307.57 230.535 307.57 225.395 307.57 221.23 311.738 221.23 316.871L221.23 354.848" fill="#F5EEE4"/></g><g id="change2_2"><path d="M221.23 354.848 220.23 354.848C220.23 360.531 224.844 365.145 230.535 365.145 236.219 365.145 240.832 360.531 240.832 354.848L240.832 316.871C240.832 311.188 236.219 306.574 230.535 306.57 224.844 306.574 220.23 311.188 220.23 316.871L220.23 354.848 222.23 354.848 222.23 316.871C222.23 314.578 223.156 312.512 224.664 311.004 226.168 309.5 228.238 308.574 230.535 308.57 232.824 308.574 234.895 309.5 236.398 311.004 237.902 312.512 238.832 314.578 238.832 316.871L238.832 354.848C238.832 357.137 237.902 359.207 236.398 360.715 234.895 362.219 232.824 363.145 230.535 363.145 228.238 363.145 226.168 362.219 224.664 360.715 223.156 359.207 222.23 357.141 222.23 354.848L221.23 354.848" fill="#351F17"/></g><g id="change1_3"><path d="M243.812 392.113C246.66 396.395 252.434 397.559 256.711 394.711 260.98 391.867 262.145 386.094 259.301 381.812L238.277 350.203C235.434 345.918 229.66 344.766 225.383 347.605 221.105 350.453 219.938 356.223 222.785 360.496L243.812 392.113" fill="#F5EEE4"/></g><g id="change2_3"><path d="M243.812 392.113 242.98 392.668C244.965 395.652 248.238 397.27 251.566 397.27 253.523 397.27 255.512 396.711 257.262 395.543 260.238 393.559 261.855 390.285 261.855 386.957 261.855 384.996 261.297 383.012 260.133 381.262L239.109 349.648C237.129 346.664 233.855 345.047 230.523 345.047 228.566 345.047 226.578 345.609 224.828 346.773 221.848 348.758 220.227 352.031 220.227 355.359 220.227 357.316 220.785 359.301 221.953 361.051L242.98 392.668 243.812 392.113 244.648 391.562 223.617 359.945C222.676 358.527 222.23 356.938 222.227 355.359 222.23 352.672 223.527 350.039 225.938 348.438 227.352 347.496 228.945 347.047 230.523 347.047 233.215 347.051 235.844 348.348 237.445 350.758L258.469 382.367C259.406 383.785 259.855 385.375 259.855 386.957 259.855 389.645 258.555 392.277 256.156 393.879 254.738 394.82 253.145 395.27 251.566 395.27 248.879 395.27 246.246 393.969 244.648 391.562L243.812 392.113" fill="#351F17"/></g><g id="change1_4"><path d="M188.582 346.668C185.66 350.891 186.719 356.684 190.938 359.605 195.156 362.527 200.949 361.473 203.883 357.254L225.484 326.027C228.406 321.809 227.355 316.02 223.125 313.094 218.902 310.168 213.109 311.223 210.191 315.445L188.582 346.668" fill="#F5EEE4"/></g><g id="change2_4"><path d="M188.582 346.668 187.762 346.102C186.523 347.883 185.93 349.93 185.93 351.949 185.93 355.211 187.48 358.426 190.367 360.426 192.152 361.66 194.199 362.258 196.219 362.258 199.48 362.258 202.699 360.707 204.703 357.824L226.309 326.598C227.543 324.812 228.137 322.766 228.137 320.746 228.141 317.484 226.586 314.27 223.695 312.27 221.91 311.031 219.863 310.438 217.844 310.438 214.578 310.438 211.363 311.988 209.367 314.879L187.762 346.102 188.582 346.668 189.402 347.238 211.016 316.016C212.625 313.684 215.207 312.438 217.844 312.438 219.473 312.438 221.113 312.914 222.555 313.914 224.891 315.527 226.137 318.113 226.137 320.746 226.137 322.379 225.66 324.016 224.664 325.461L203.059 356.684 203.062 356.684C201.441 359.012 198.855 360.258 196.219 360.258 194.59 360.258 192.949 359.781 191.504 358.781 189.18 357.168 187.934 354.586 187.93 351.949 187.93 350.32 188.406 348.68 189.402 347.238L188.582 346.668" fill="#351F17"/></g><g id="change1_5"><path d="M185.941 390.164C185.848 395.293 189.934 399.539 195.066 399.633 200.199 399.73 204.434 395.645 204.535 390.508L205.238 352.543C205.344 347.41 201.246 343.172 196.117 343.074 190.98 342.98 186.738 347.066 186.645 352.203L185.941 390.164" fill="#F5EEE4"/></g><g id="change2_5"><path d="M185.941 390.164 184.941 390.145 184.938 390.34C184.941 395.938 189.426 400.531 195.051 400.633L195.242 400.633C200.844 400.633 205.422 396.148 205.535 390.527L206.238 352.562 206.242 352.359C206.238 346.762 201.75 342.18 196.137 342.074L195.941 342.074C190.34 342.074 185.75 346.559 185.645 352.184L184.941 390.145 186.941 390.184 187.645 352.223C187.727 347.688 191.43 344.074 195.941 344.074L196.098 344.074C200.621 344.156 204.242 347.855 204.242 352.359L204.238 352.523 203.535 390.488C203.445 395.02 199.75 398.637 195.242 398.633L195.086 398.633C190.555 398.551 186.938 394.848 186.938 390.34L186.941 390.184 185.941 390.164" fill="#351F17"/></g><g id="change1_6"><path d="M163.395 325.551C171.727 320.719 178.344 312.875 181.371 302.934 187.742 282.047 175.969 259.941 155.078 253.57 146.023 250.812 136.746 251.473 128.617 254.789L128.613 254.781 128.57 254.805C126.145 255.805 123.816 257.031 121.633 258.48L76.6719 282.293 114.238 351.793 157.777 328.262C159.594 327.562 161.352 326.727 163.043 325.766L163.41 325.594 163.395 325.551" fill="#F5EEE4"/></g><g id="change2_6"><path d="M163.395 325.551 163.895 326.414C172.434 321.465 179.223 313.418 182.328 303.223 183.531 299.285 184.102 295.305 184.102 291.387 184.102 274.016 172.848 257.945 155.371 252.617 151.441 251.418 147.465 250.848 143.559 250.848 138.238 250.848 133.043 251.902 128.238 253.863L128.617 254.789 129.566 254.473 129.562 254.469C129.473 254.195 129.27 253.973 129.008 253.863 128.742 253.75 128.441 253.758 128.184 253.883L128.141 253.902 128.57 254.805 128.191 253.879C125.703 254.902 123.32 256.16 121.078 257.648L121.633 258.48 121.164 257.598 76.207 281.41C75.9688 281.535 75.793 281.746 75.7188 282.004 75.6406 282.258 75.668 282.531 75.793 282.77L113.359 352.27C113.484 352.504 113.699 352.68 113.953 352.754 114.203 352.828 114.48 352.801 114.715 352.676L158.254 329.141 157.777 328.262 158.141 329.191C159.996 328.477 161.801 327.621 163.535 326.637L163.043 325.766 163.469 326.668 163.84 326.496C164.328 326.266 164.543 325.695 164.332 325.199L164.312 325.156 163.395 325.551 163.895 326.414 163.395 325.551 162.477 325.945 162.492 325.984 163.41 325.594 162.984 324.688 162.617 324.859 162.551 324.895C160.898 325.832 159.184 326.645 157.418 327.328L157.305 327.379 114.641 350.438 78.0312 282.703 122.102 259.367 122.188 259.316C124.312 257.902 126.582 256.703 128.949 255.73L129.004 255.707 129.047 255.684 128.613 254.781 127.668 255.098 127.668 255.105C127.758 255.367 127.945 255.582 128.199 255.699 128.453 255.812 128.738 255.82 128.996 255.715 133.562 253.852 138.504 252.848 143.559 252.848 147.27 252.848 151.047 253.391 154.789 254.527 171.402 259.594 182.102 274.875 182.102 291.387 182.102 295.109 181.559 298.895 180.418 302.641 177.461 312.332 171.02 319.973 162.895 324.688 162.453 324.941 162.277 325.48 162.477 325.945L163.395 325.551" fill="#351F17"/></g><g id="change1_7"><path d="M134.613 327.84C128.242 348.734 106.145 360.504 85.2578 354.137 64.3594 347.766 52.5898 325.664 58.9609 304.77 65.3281 283.883 87.4258 272.105 108.32 278.48 129.211 284.848 140.984 306.949 134.613 327.84" fill="#F5EEE4"/></g><g id="change2_7"><path d="M134.613 327.84 133.66 327.547C128.594 344.168 113.309 354.863 96.8008 354.863 93.0781 354.863 89.293 354.32 85.5469 353.18 68.9258 348.113 58.2305 332.836 58.2266 316.32 58.2266 312.598 58.7734 308.812 59.9141 305.062 64.9805 288.449 80.2578 277.75 96.7734 277.746 100.496 277.746 104.281 278.289 108.031 279.434 124.645 284.5 135.344 299.781 135.344 316.297 135.344 320.016 134.801 323.801 133.656 327.547L135.57 328.133C136.77 324.191 137.344 320.211 137.344 316.297 137.344 298.922 126.09 282.852 108.613 277.523 104.676 276.32 100.688 275.746 96.7734 275.746 79.3984 275.746 63.332 287.004 58.0039 304.48 56.8008 308.418 56.2266 312.402 56.2266 316.32 56.2266 333.695 67.4805 349.762 84.9648 355.094 88.9023 356.293 92.8828 356.863 96.8008 356.863 114.172 356.863 130.238 345.613 135.57 328.133L134.613 327.84" fill="#351F17"/></g><g id="change1_8"><path d="M188.848 53.7539 224.863 32.8828C224.863 32.8828 257.555 18.0156 298.246 30.668 338.945 43.332 372.98 74.2148 367.359 129.355 361.73 184.48 313.613 217.922 274.691 227.066 274.691 227.066 317.617 203.582 320.438 139.266 323.027 79.8398 248.84 39.0039 188.848 53.7539" fill="#F5EEE4"/></g><g id="change2_8"><path d="M188.848 53.7539 189.348 54.6172 225.367 33.7461 224.863 32.8828 225.277 33.7891 225.316 33.7734C226.199 33.3789 241.891 26.5625 264.598 26.5664 274.574 26.5664 285.906 27.8789 297.949 31.6211 316.68 37.4492 333.945 47.1562 346.508 61.2812 359.066 75.4102 366.965 93.9492 366.969 117.652 366.969 121.387 366.773 125.254 366.367 129.254 363.578 156.543 350.285 178.453 332.828 194.723 315.379 210.984 293.754 221.562 274.465 226.094L274.691 227.066 275.172 227.945C275.254 227.898 286.094 221.957 297.289 207.906 308.484 193.863 320.02 171.688 321.438 139.309 321.484 138.281 321.504 137.262 321.504 136.242 321.504 111.066 307.902 89.3984 287.766 74.0859 267.625 58.7695 240.926 49.7305 214.465 49.7266 205.738 49.7266 197.035 50.7109 188.605 52.7812L188.848 53.7539 189.348 54.6172 188.848 53.7539 189.086 54.7266C197.348 52.6914 205.887 51.7266 214.465 51.7266 240.473 51.7227 266.793 60.6406 286.555 75.6797 306.324 90.7266 319.504 111.82 319.504 136.242 319.504 137.23 319.484 138.223 319.441 139.223 318.035 171.16 306.695 192.887 295.727 206.66 290.238 213.547 284.84 218.441 280.824 221.605 278.816 223.188 277.152 224.34 275.996 225.094 275.418 225.469 274.965 225.746 274.66 225.93 274.512 226.02 274.395 226.086 274.32 226.129L274.234 226.176 274.211 226.188C273.773 226.43 273.578 226.957 273.758 227.426 273.938 227.891 274.434 228.152 274.922 228.039 294.555 223.426 316.449 212.711 334.191 196.184 351.934 179.664 365.516 157.293 368.355 129.453 368.77 125.391 368.969 121.461 368.969 117.652 368.977 93.5 360.875 74.4141 348.004 59.9531 335.133 45.4844 317.539 35.625 298.547 29.7148 286.289 25.9023 274.75 24.5664 264.598 24.5664 240.742 24.5664 224.535 31.9336 224.449 31.9688L224.363 32.0156 188.344 52.8906C187.914 53.1367 187.73 53.6641 187.918 54.1289 188.105 54.5898 188.602 54.8438 189.086 54.7266L188.848 53.7539" fill="#351F17"/></g><g id="change1_9"><path d="M136.586 167.301 185.859 141.23C185.859 141.23 197.035 134.684 249.418 134.195 249.418 134.195 256.395 158.402 220.672 159.215 184.938 160.023 145.387 162.859 136.586 167.301" fill="#F5EEE4"/></g><g id="change2_9"><path d="M136.586 167.301 137.055 168.184 186.328 142.113 186.363 142.094 186.176 141.77 186.359 142.098 186.363 142.094 186.176 141.77 186.359 142.098C186.426 142.043 197.945 135.664 249.426 135.195L249.418 134.195 248.457 134.473 248.461 134.484C248.504 134.645 248.969 136.402 248.969 138.871 248.969 140.555 248.754 142.566 248.055 144.633 247.004 147.734 244.906 150.961 240.707 153.535 236.512 156.102 230.16 157.996 220.648 158.215 202.762 158.621 183.926 159.531 168.441 160.898 160.695 161.582 153.793 162.383 148.25 163.289 145.477 163.742 143.047 164.227 141.016 164.738 138.98 165.258 137.348 165.797 136.137 166.406L136.586 167.301 137.055 168.184 136.586 167.301 137.035 168.191C138.023 167.691 139.555 167.172 141.504 166.68 148.355 164.945 160.379 163.492 174.551 162.402 188.727 161.309 205.074 160.566 220.691 160.211 227.195 160.066 232.344 159.152 236.414 157.727 242.523 155.598 246.223 152.281 248.328 148.781 250.438 145.281 250.969 141.648 250.969 138.871 250.969 135.973 250.395 133.98 250.379 133.922 250.254 133.488 249.859 133.191 249.41 133.195 196.945 133.691 185.648 140.215 185.355 140.367L185.859 141.23 185.391 140.348 136.117 166.414C135.633 166.672 135.445 167.27 135.695 167.758 135.949 168.246 136.547 168.438 137.035 168.191L136.586 167.301" fill="#351F17"/></g><g id="change1_10"><path d="M204.234 248.176C202.133 245.82 200.797 241.922 202.547 237.824 202.547 237.824 142.199 222.516 139.258 249.855 138.758 254.52 153.625 262.754 151.039 269.977L204.234 248.176" fill="#F5EEE4"/></g><g id="change2_10"><path d="M204.234 248.176 204.98 247.508C203.703 246.082 202.734 243.996 202.738 241.684 202.738 240.578 202.953 239.414 203.465 238.219 203.582 237.949 203.574 237.645 203.441 237.383 203.312 237.117 203.078 236.926 202.793 236.855 202.75 236.848 185.871 232.555 169.383 232.551 162.016 232.555 154.723 233.398 148.969 235.953 146.094 237.23 143.602 238.949 141.727 241.23 139.855 243.512 138.625 246.348 138.262 249.746 138.25 249.859 138.246 249.973 138.246 250.09 138.246 250.867 138.508 251.594 138.883 252.305 139.547 253.547 140.605 254.785 141.816 256.098 143.637 258.055 145.816 260.152 147.512 262.258 148.355 263.309 149.078 264.359 149.574 265.367 150.074 266.375 150.344 267.332 150.34 268.223 150.34 268.703 150.266 269.168 150.098 269.637 149.965 270.012 150.062 270.426 150.348 270.699 150.633 270.973 151.051 271.051 151.418 270.898L204.613 249.102C204.914 248.977 205.137 248.715 205.211 248.398 205.281 248.086 205.199 247.75 204.98 247.508L204.234 248.176 203.855 247.25 150.66 269.051 151.039 269.977 151.98 270.312C152.227 269.621 152.34 268.918 152.34 268.223 152.336 266.246 151.465 264.391 150.277 262.633 148.488 259.996 145.902 257.512 143.797 255.285 142.746 254.176 141.816 253.137 141.18 252.227 140.535 251.316 140.23 250.543 140.246 250.09L140.254 249.961C140.582 246.914 141.645 244.488 143.273 242.5 145.711 239.523 149.496 237.52 154.074 236.273 158.645 235.027 163.977 234.551 169.383 234.551 177.457 234.551 185.703 235.609 191.918 236.676 195.023 237.203 197.625 237.734 199.445 238.133 200.359 238.332 201.074 238.496 201.559 238.613 201.805 238.672 201.988 238.719 202.113 238.746 202.238 238.777 202.301 238.793 202.301 238.793L202.547 237.824 201.629 237.43C201.008 238.875 200.738 240.316 200.738 241.684 200.742 244.559 201.918 247.078 203.492 248.844L204.234 248.176 203.855 247.25 204.234 248.176" fill="#351F17"/></g><g id="change1_11"><path d="M212.656 159.574C210.785 159.684 209.355 159.727 208.395 159.707 205.352 159.746 200.73 159.77 194.531 159.812 166.562 160.199 147.617 162.52 137.738 166.793 125.527 172.008 115.598 179.156 107.926 188.223 100.266 197.309 94.2695 208.965 89.9141 223.188 87.1406 232.258 85.4102 240.887 84.4883 249.168L151.055 270.086C150.559 269.516 153.574 259.672 155.496 253.363 158.578 243.305 170.949 238.145 192.605 237.887 196.961 237.836 200.27 237.824 202.547 237.824 220.324 237.492 234.66 236.602 245.559 235.188 256.457 233.777 264.66 231.855 270.184 229.41 280.949 224.305 290.09 217.055 297.578 207.648 305.062 198.242 310.902 186.668 315.109 172.957 323.547 145.387 321.984 121.242 310.441 100.492 298.895 79.75 278.793 65.0039 250.133 56.2344 221.973 47.6211 197.516 48.3633 176.742 58.4492 155.996 68.5586 140.27 87.3125 129.602 114.734L196.375 135.176C199.969 127.324 204.688 122.102 210.531 119.484 216.379 116.871 223.562 116.859 232.09 119.469 239.629 121.773 244.742 125.062 247.449 129.324 250.152 133.598 250.52 138.941 248.562 145.363 245.742 154.555 233.781 159.281 212.656 159.574" fill="#F5EEE4"/></g><g id="change2_11"><path d="M212.656 159.574 212.602 158.574C211.02 158.668 209.762 158.711 208.852 158.711 208.695 158.711 208.547 158.711 208.406 158.707L208.379 158.707C205.344 158.746 200.723 158.77 194.527 158.812L194.52 158.812C180.508 159.004 168.75 159.684 159.23 160.852 149.711 162.023 142.434 163.676 137.344 165.875L137.348 165.871C125.012 171.141 114.941 178.383 107.16 187.578 99.3945 196.789 93.3438 208.57 88.957 222.895 86.168 232.023 84.4258 240.715 83.4961 249.059 83.4414 249.531 83.7344 249.98 84.1875 250.121L150.754 271.039C151.18 271.172 151.648 271.004 151.891 270.633 152.137 270.258 152.102 269.762 151.809 269.426L151.219 269.941 151.992 269.789C151.98 269.742 151.973 269.629 151.809 269.426L151.219 269.941 151.992 269.789 151.68 269.852 152 269.828 151.992 269.789 151.68 269.852 152 269.828 152 269.809C151.996 269.715 152.031 269.41 152.102 269.023 152.359 267.637 153.062 265.039 153.891 262.191 154.719 259.34 155.676 256.211 156.453 253.656 157.176 251.301 158.43 249.246 160.254 247.449 162.98 244.762 167.02 242.656 172.418 241.211 177.816 239.766 184.555 238.98 192.617 238.887 196.969 238.836 200.273 238.824 202.547 238.824L202.566 238.824C220.367 238.492 234.734 237.602 245.684 236.18 256.641 234.762 264.91 232.832 270.586 230.324L270.609 230.312C281.512 225.145 290.781 217.793 298.359 208.273 305.938 198.75 311.832 187.059 316.066 173.25 319.652 161.531 321.449 150.406 321.449 139.875 321.453 125.453 318.07 112.145 311.316 100.008 299.621 78.9961 279.254 64.0938 250.426 55.2773 237.375 51.2852 225.094 49.2852 213.574 49.2852 200.09 49.2852 187.652 52.0391 176.309 57.5508 155.289 67.7852 139.395 86.793 128.668 114.375 128.566 114.633 128.578 114.922 128.703 115.172 128.824 115.422 129.043 115.609 129.309 115.691L196.082 136.129C196.562 136.277 197.074 136.047 197.285 135.59 200.816 127.883 205.375 122.891 210.938 120.398 213.73 119.148 216.852 118.52 220.336 118.516 223.801 118.516 227.621 119.145 231.797 120.422 235.5 121.555 238.582 122.926 241.043 124.504 243.504 126.086 245.344 127.875 246.605 129.863 248.062 132.172 248.793 134.797 248.797 137.832 248.797 140.035 248.406 142.449 247.605 145.074L247.605 145.07C246.949 147.199 245.781 149.059 244.047 150.691 241.453 153.141 237.555 155.074 232.312 156.402 227.074 157.734 220.512 158.469 212.645 158.574L212.602 158.574 212.656 159.574 212.672 160.574C223.309 160.426 231.68 159.172 237.844 156.734 240.926 155.516 243.457 153.996 245.422 152.148 247.383 150.305 248.766 148.125 249.52 145.656 250.363 142.879 250.797 140.27 250.797 137.832 250.801 134.473 249.969 131.43 248.297 128.793 246.852 126.516 244.781 124.527 242.121 122.824 239.465 121.117 236.219 119.688 232.383 118.512 228.055 117.188 224.043 116.52 220.336 116.516 216.609 116.516 213.195 117.199 210.121 118.574 203.996 121.312 199.121 126.77 195.465 134.758L196.375 135.176 196.668 134.219 129.895 113.781 129.602 114.734 130.531 115.098C141.148 87.8359 156.707 69.3281 177.184 59.3516 188.242 53.9766 200.359 51.2852 213.574 51.2852 224.859 51.2852 236.949 53.2461 249.84 57.1914 278.332 65.9141 298.164 80.5039 309.566 100.98 316.156 112.824 319.449 125.766 319.449 139.875 319.449 150.18 317.691 161.105 314.156 172.664 309.977 186.277 304.191 197.734 296.797 207.027 289.395 216.316 280.387 223.465 269.754 228.508L270.184 229.41 269.777 228.496C264.414 230.875 256.273 232.797 245.43 234.199 234.59 235.602 220.281 236.492 202.527 236.824L202.547 237.824 202.547 236.824C200.266 236.824 196.949 236.836 192.594 236.887 181.688 237.02 173.074 238.371 166.703 241.027 163.516 242.355 160.891 244.016 158.848 246.023 156.805 248.035 155.355 250.398 154.539 253.07 153.648 255.988 152.523 259.672 151.617 262.848 151.164 264.438 150.77 265.898 150.48 267.09 150.336 267.684 150.219 268.211 150.137 268.66 150.055 269.109 150.004 269.469 150 269.809 150 269.922 150.004 270.031 150.031 270.176 150.066 270.312 150.098 270.496 150.301 270.742L151.055 270.086 151.355 269.129 84.7891 248.215 84.4883 249.168 85.4805 249.277C86.3984 241.055 88.1133 232.488 90.8711 223.477 95.1953 209.355 101.137 197.824 108.688 188.867 116.25 179.93 126.043 172.875 138.133 167.711L138.137 167.711C142.926 165.637 150.062 163.988 159.473 162.836 168.891 161.68 180.586 161.004 194.547 160.809L194.539 160.809C200.734 160.766 205.355 160.746 208.406 160.707L208.395 159.707 208.379 160.707C208.523 160.707 208.68 160.711 208.852 160.711 209.82 160.711 211.109 160.664 212.715 160.574L212.656 159.574 212.672 160.574 212.656 159.574" fill="#351F17"/></g><g id="change1_12"><path d="M178.199 250.512C180.816 248.859 183.766 249.523 186.273 251.348L203.891 263.113 224.227 255.23C227.578 253.93 231.359 255.598 232.66 258.949 233.949 262.305 232.297 266.074 228.938 267.379L207.438 275.715 206.164 276.203 206.152 276.176C205.152 276.691 204.02 276.969 202.824 276.906 201.605 276.844 200.492 276.457 199.543 275.82 199.348 275.727 199.133 275.605 198.949 275.48L179.773 262.672 178.645 261.91 178.648 261.887C177.664 261.367 176.785 260.594 176.145 259.57 174.199 256.508 175.129 252.441 178.199 250.512" fill="#F5EEE4"/></g><g id="change2_12"><path d="M178.199 250.512 178.73 251.355C179.613 250.801 180.5 250.566 181.414 250.566 182.805 250.562 184.293 251.141 185.688 252.156L185.719 252.176 203.332 263.945C203.602 264.125 203.949 264.164 204.25 264.047L224.586 256.164C225.242 255.906 225.914 255.789 226.578 255.789 228.789 255.789 230.883 257.125 231.73 259.312L231.73 259.309C231.98 259.965 232.098 260.637 232.098 261.297 232.098 263.508 230.766 265.598 228.574 266.445L207.074 274.781 205.809 275.27 206.164 276.203 207.059 275.758 207.047 275.73C206.926 275.488 206.719 275.309 206.465 275.227 206.211 275.141 205.93 275.164 205.695 275.285 204.914 275.688 204.055 275.914 203.148 275.914 203.059 275.914 202.965 275.91 202.867 275.906L202.879 275.906C201.836 275.852 200.906 275.527 200.102 274.988L199.973 274.918C199.82 274.844 199.645 274.746 199.523 274.66L199.508 274.648 180.328 261.84 179.199 261.082 178.645 261.91 179.621 262.121 179.625 262.094C179.719 261.656 179.512 261.207 179.113 261 178.277 260.559 177.535 259.902 176.988 259.039L176.988 259.035C176.402 258.113 176.129 257.09 176.129 256.074 176.129 254.223 177.051 252.414 178.73 251.355L178.199 250.512 177.668 249.664C175.383 251.102 174.125 253.562 174.129 256.074 174.129 257.457 174.508 258.859 175.301 260.105L175.297 260.105C176.039 261.281 177.055 262.176 178.184 262.77L178.648 261.887 177.672 261.676 177.664 261.703C177.578 262.105 177.746 262.516 178.086 262.742L179.219 263.5 198.395 276.312 198.949 275.48 198.379 276.301C198.621 276.469 198.871 276.609 199.113 276.723L199.543 275.82 198.984 276.652C200.078 277.387 201.371 277.832 202.77 277.906L202.777 277.906C202.898 277.91 203.023 277.914 203.148 277.914 204.391 277.914 205.57 277.602 206.609 277.062L206.152 276.176 205.258 276.621 205.27 276.648C205.504 277.113 206.043 277.32 206.523 277.137L207.793 276.648 207.797 276.648 229.301 268.309C232.281 267.152 234.102 264.309 234.098 261.297 234.098 260.395 233.938 259.48 233.594 258.594L233.594 258.59C232.438 255.609 229.594 253.785 226.578 253.789 225.676 253.785 224.754 253.953 223.863 254.297L204.012 261.992 186.832 250.516 186.273 251.348 186.863 250.535C185.223 249.348 183.355 248.57 181.414 248.566 180.145 248.562 178.855 248.91 177.664 249.664L178.199 250.512" fill="#351F17"/></g><g id="change1_13"><path d="M225.18 244.812C214.887 244.812 206.543 236.465 206.543 226.168 206.543 215.879 214.887 207.527 225.18 207.527 235.48 207.527 243.828 215.879 243.828 226.168 243.828 236.465 235.48 244.812 225.18 244.812" fill="#F5EEE4"/></g><g id="change2_13"><path d="M225.18 244.812 225.18 243.809C220.305 243.809 215.902 241.84 212.707 238.645 209.516 235.449 207.543 231.043 207.543 226.168 207.543 221.297 209.516 216.891 212.707 213.695 215.902 210.5 220.305 208.527 225.18 208.527 230.055 208.527 234.461 210.5 237.66 213.695 240.855 216.891 242.828 221.297 242.828 226.168 242.828 231.043 240.855 235.449 237.66 238.645 234.461 241.836 230.055 243.809 225.18 243.812L225.18 245.809C236.031 245.809 244.828 237.02 244.828 226.168 244.828 215.324 236.031 206.527 225.18 206.527 214.332 206.527 205.543 215.324 205.543 226.168 205.543 237.016 214.332 245.809 225.18 245.812L225.18 244.812" fill="#351F17"/></g></g></svg>